<mxfile host="Electron" agent="Mozilla/5.0 (Windows NT 10.0; Win64; x64) AppleWebKit/537.36 (KHTML, like Gecko) draw.io/25.0.2 Chrome/128.0.6613.186 Electron/32.2.5 Safari/537.36" version="25.0.2">
  <diagram name="Page-1" id="b5b7bab2-c9e2-2cf4-8b2a-24fd1a2a6d21">
    <mxGraphModel dx="1036" dy="614" grid="1" gridSize="10" guides="1" tooltips="1" connect="1" arrows="1" fold="1" page="1" pageScale="1" pageWidth="827" pageHeight="1169" background="none" math="0" shadow="0">
      <root>
        <mxCell id="0" />
        <mxCell id="1" parent="0" />
        <mxCell id="6e0c8c40b5770093-33" value="" style="shape=folder;fontStyle=1;spacingTop=10;tabWidth=123;tabHeight=24;tabPosition=left;html=1;rounded=0;shadow=0;comic=0;labelBackgroundColor=none;strokeColor=#000000;strokeWidth=1;fillColor=#ffffff;fontFamily=Verdana;fontSize=10;fontColor=#000000;align=center;" parent="1" vertex="1">
          <mxGeometry x="230" y="140" width="950" height="610" as="geometry" />
        </mxCell>
        <mxCell id="6e0c8c40b5770093-42" value="Account management" style="shape=folder;fontStyle=1;spacingTop=10;tabWidth=50;tabHeight=17;tabPosition=left;html=1;rounded=0;shadow=0;comic=0;labelBackgroundColor=none;strokeColor=#000000;strokeWidth=1;fillColor=#ffffff;fontFamily=Verdana;fontSize=10;fontColor=#000000;align=center;" parent="1" vertex="1">
          <mxGeometry x="470" y="255" width="160" height="100" as="geometry" />
        </mxCell>
        <mxCell id="6e0c8c40b5770093-43" value="Product management" style="shape=folder;fontStyle=1;spacingTop=10;tabWidth=50;tabHeight=17;tabPosition=left;html=1;rounded=0;shadow=0;comic=0;labelBackgroundColor=none;strokeColor=#000000;strokeWidth=1;fillColor=#ffffff;fontFamily=Verdana;fontSize=10;fontColor=#000000;align=center;" parent="1" vertex="1">
          <mxGeometry x="460" y="402.75" width="160" height="100" as="geometry" />
        </mxCell>
        <mxCell id="6e0c8c40b5770093-44" value="Order management" style="shape=folder;fontStyle=1;spacingTop=10;tabWidth=50;tabHeight=17;tabPosition=left;html=1;rounded=0;shadow=0;comic=0;labelBackgroundColor=none;strokeColor=#000000;strokeWidth=1;fillColor=#ffffff;fontFamily=Verdana;fontSize=10;fontColor=#000000;align=center;" parent="1" vertex="1">
          <mxGeometry x="690" y="250" width="160" height="87.75" as="geometry" />
        </mxCell>
        <mxCell id="6e0c8c40b5770093-45" value="Auction management" style="shape=folder;fontStyle=1;spacingTop=10;tabWidth=50;tabHeight=17;tabPosition=left;html=1;rounded=0;shadow=0;comic=0;labelBackgroundColor=none;strokeColor=#000000;strokeWidth=1;fillColor=#ffffff;fontFamily=Verdana;fontSize=10;fontColor=#000000;align=center;" parent="1" vertex="1">
          <mxGeometry x="705" y="419.13" width="155" height="85" as="geometry" />
        </mxCell>
        <mxCell id="6e0c8c40b5770093-73" value="craftopia" style="text;html=1;align=left;verticalAlign=top;spacingTop=-4;fontSize=10;fontFamily=Verdana" parent="1" vertex="1">
          <mxGeometry x="270" y="140" width="80" height="30" as="geometry" />
        </mxCell>
        <mxCell id="jnkB9Sy5KkFoXBMUI9Ge-4" value="Gallery management" style="shape=folder;fontStyle=1;spacingTop=10;tabWidth=50;tabHeight=17;tabPosition=left;html=1;rounded=0;shadow=0;comic=0;labelBackgroundColor=none;strokeColor=#000000;strokeWidth=1;fillColor=#ffffff;fontFamily=Verdana;fontSize=10;fontColor=#000000;align=center;" parent="1" vertex="1">
          <mxGeometry x="940" y="272.25" width="160" height="87.75" as="geometry" />
        </mxCell>
        <mxCell id="jnkB9Sy5KkFoXBMUI9Ge-7" value="Customization Request&amp;nbsp; management" style="shape=folder;fontStyle=1;spacingTop=10;tabWidth=50;tabHeight=17;tabPosition=left;html=1;rounded=0;shadow=0;comic=0;labelBackgroundColor=none;strokeColor=#000000;strokeWidth=1;fillColor=#ffffff;fontFamily=Verdana;fontSize=10;fontColor=#000000;align=center;" parent="1" vertex="1">
          <mxGeometry x="960" y="416.38" width="210" height="87.75" as="geometry" />
        </mxCell>
        <mxCell id="mDy0LjV4EdPmGKK1C5-q-1" value="Category management" style="shape=folder;fontStyle=1;spacingTop=10;tabWidth=50;tabHeight=17;tabPosition=left;html=1;rounded=0;shadow=0;comic=0;labelBackgroundColor=none;strokeColor=#000000;strokeWidth=1;fillColor=#ffffff;fontFamily=Verdana;fontSize=10;fontColor=#000000;align=center;" parent="1" vertex="1">
          <mxGeometry x="380" y="580" width="160" height="100" as="geometry" />
        </mxCell>
        <mxCell id="tIno5rQIWUBfeGRRvXYs-1" value="Notification management" style="shape=folder;fontStyle=1;spacingTop=10;tabWidth=50;tabHeight=17;tabPosition=left;html=1;rounded=0;shadow=0;comic=0;labelBackgroundColor=none;strokeColor=#000000;strokeWidth=1;fillColor=#ffffff;fontFamily=Verdana;fontSize=10;fontColor=#000000;align=center;" parent="1" vertex="1">
          <mxGeometry x="275" y="415" width="155" height="85" as="geometry" />
        </mxCell>
        <mxCell id="FF-GTUpiViAP1Fzdmv1N-1" value="Messaging system" style="shape=folder;fontStyle=1;spacingTop=10;tabWidth=50;tabHeight=17;tabPosition=left;html=1;rounded=0;shadow=0;comic=0;labelBackgroundColor=none;strokeColor=#000000;strokeWidth=1;fillColor=#ffffff;fontFamily=Verdana;fontSize=10;fontColor=#000000;align=center;" parent="1" vertex="1">
          <mxGeometry x="880" y="592.25" width="160" height="87.75" as="geometry" />
        </mxCell>
        <mxCell id="LrHY2OVz5gG6aqd8ZNlK-4" value="" style="endArrow=classic;html=1;rounded=0;entryX=0;entryY=0;entryDx=160;entryDy=17;entryPerimeter=0;exitX=0;exitY=0;exitDx=0;exitDy=87.75;exitPerimeter=0;" parent="1" source="jnkB9Sy5KkFoXBMUI9Ge-4" target="6e0c8c40b5770093-43" edge="1">
          <mxGeometry width="50" height="50" relative="1" as="geometry">
            <mxPoint x="880" y="400" as="sourcePoint" />
            <mxPoint x="930" y="350" as="targetPoint" />
          </mxGeometry>
        </mxCell>
        <mxCell id="LrHY2OVz5gG6aqd8ZNlK-5" value="contains" style="text;html=1;align=center;verticalAlign=middle;whiteSpace=wrap;rounded=0;" parent="1" vertex="1">
          <mxGeometry x="740" y="370" width="60" height="30" as="geometry" />
        </mxCell>
        <mxCell id="LrHY2OVz5gG6aqd8ZNlK-6" value="" style="endArrow=classic;html=1;rounded=0;exitX=0.25;exitY=1;exitDx=0;exitDy=0;exitPerimeter=0;entryX=0.588;entryY=0.176;entryDx=0;entryDy=0;entryPerimeter=0;" parent="1" source="6e0c8c40b5770093-43" target="mDy0LjV4EdPmGKK1C5-q-1" edge="1">
          <mxGeometry width="50" height="50" relative="1" as="geometry">
            <mxPoint x="480" y="585" as="sourcePoint" />
            <mxPoint x="530" y="535" as="targetPoint" />
          </mxGeometry>
        </mxCell>
        <mxCell id="LrHY2OVz5gG6aqd8ZNlK-9" value="belongs" style="text;html=1;align=center;verticalAlign=middle;whiteSpace=wrap;rounded=0;" parent="1" vertex="1">
          <mxGeometry x="500" y="530" width="60" height="30" as="geometry" />
        </mxCell>
        <mxCell id="LrHY2OVz5gG6aqd8ZNlK-10" value="" style="endArrow=classic;html=1;rounded=0;exitX=0.003;exitY=0.712;exitDx=0;exitDy=0;exitPerimeter=0;entryX=0.716;entryY=0.191;entryDx=0;entryDy=0;entryPerimeter=0;" parent="1" source="6e0c8c40b5770093-42" target="tIno5rQIWUBfeGRRvXYs-1" edge="1">
          <mxGeometry width="50" height="50" relative="1" as="geometry">
            <mxPoint x="410" y="370" as="sourcePoint" />
            <mxPoint x="460" y="320" as="targetPoint" />
          </mxGeometry>
        </mxCell>
        <mxCell id="LrHY2OVz5gG6aqd8ZNlK-11" value="received" style="text;html=1;align=center;verticalAlign=middle;whiteSpace=wrap;rounded=0;" parent="1" vertex="1">
          <mxGeometry x="380" y="360" width="60" height="30" as="geometry" />
        </mxCell>
        <mxCell id="LrHY2OVz5gG6aqd8ZNlK-12" value="" style="endArrow=classic;html=1;rounded=0;exitX=0.25;exitY=1;exitDx=0;exitDy=0;exitPerimeter=0;entryX=0.75;entryY=0.316;entryDx=0;entryDy=0;entryPerimeter=0;" parent="1" source="jnkB9Sy5KkFoXBMUI9Ge-7" target="FF-GTUpiViAP1Fzdmv1N-1" edge="1">
          <mxGeometry width="50" height="50" relative="1" as="geometry">
            <mxPoint x="960" y="570" as="sourcePoint" />
            <mxPoint x="1010" y="520" as="targetPoint" />
          </mxGeometry>
        </mxCell>
        <mxCell id="LrHY2OVz5gG6aqd8ZNlK-13" value="initiates" style="text;html=1;align=center;verticalAlign=middle;whiteSpace=wrap;rounded=0;" parent="1" vertex="1">
          <mxGeometry x="910" y="540" width="60" height="30" as="geometry" />
        </mxCell>
        <mxCell id="LrHY2OVz5gG6aqd8ZNlK-14" value="" style="endArrow=classic;html=1;rounded=0;exitX=0;exitY=0;exitDx=102.5;exitDy=17;exitPerimeter=0;entryX=0.8;entryY=0.98;entryDx=0;entryDy=0;entryPerimeter=0;" parent="1" source="6e0c8c40b5770093-45" target="6e0c8c40b5770093-44" edge="1">
          <mxGeometry width="50" height="50" relative="1" as="geometry">
            <mxPoint x="690" y="465" as="sourcePoint" />
            <mxPoint x="740" y="415" as="targetPoint" />
          </mxGeometry>
        </mxCell>
        <mxCell id="LrHY2OVz5gG6aqd8ZNlK-15" value="creates" style="text;html=1;align=center;verticalAlign=middle;whiteSpace=wrap;rounded=0;" parent="1" vertex="1">
          <mxGeometry x="810" y="337.75" width="60" height="30" as="geometry" />
        </mxCell>
        <mxCell id="LrHY2OVz5gG6aqd8ZNlK-16" value="" style="endArrow=classic;html=1;rounded=0;entryX=0;entryY=0;entryDx=160;entryDy=52.375;entryPerimeter=0;exitX=0.366;exitY=0.246;exitDx=0;exitDy=0;exitPerimeter=0;" parent="1" source="jnkB9Sy5KkFoXBMUI9Ge-7" target="6e0c8c40b5770093-44" edge="1">
          <mxGeometry width="50" height="50" relative="1" as="geometry">
            <mxPoint x="860" y="420" as="sourcePoint" />
            <mxPoint x="910" y="370" as="targetPoint" />
          </mxGeometry>
        </mxCell>
        <mxCell id="LrHY2OVz5gG6aqd8ZNlK-17" value="initiates" style="text;html=1;align=center;verticalAlign=middle;whiteSpace=wrap;rounded=0;" parent="1" vertex="1">
          <mxGeometry x="860" y="290" width="60" height="30" as="geometry" />
        </mxCell>
        <mxCell id="vje2uT5RQnnK4OeQTwtB-1" value="Database management&amp;nbsp;" style="shape=folder;fontStyle=1;spacingTop=10;tabWidth=50;tabHeight=17;tabPosition=left;html=1;rounded=0;shadow=0;comic=0;labelBackgroundColor=none;strokeColor=#000000;strokeWidth=1;fillColor=#ffffff;fontFamily=Verdana;fontSize=10;fontColor=#000000;align=center;" vertex="1" parent="1">
          <mxGeometry x="670" y="550" width="160" height="100" as="geometry" />
        </mxCell>
        <mxCell id="vje2uT5RQnnK4OeQTwtB-3" value="" style="endArrow=classic;html=1;rounded=0;entryX=0.502;entryY=0.17;entryDx=0;entryDy=0;entryPerimeter=0;" edge="1" parent="1" source="6e0c8c40b5770093-42" target="vje2uT5RQnnK4OeQTwtB-1">
          <mxGeometry width="50" height="50" relative="1" as="geometry">
            <mxPoint x="950" y="540" as="sourcePoint" />
            <mxPoint x="650" y="597" as="targetPoint" />
          </mxGeometry>
        </mxCell>
        <mxCell id="vje2uT5RQnnK4OeQTwtB-4" value="Stored" style="text;html=1;align=center;verticalAlign=middle;whiteSpace=wrap;rounded=0;" vertex="1" parent="1">
          <mxGeometry x="620" y="520" width="60" height="30" as="geometry" />
        </mxCell>
        <mxCell id="vje2uT5RQnnK4OeQTwtB-6" value="" style="endArrow=classic;html=1;rounded=0;entryX=0.813;entryY=0.178;entryDx=0;entryDy=0;entryPerimeter=0;exitX=0.75;exitY=1;exitDx=0;exitDy=0;exitPerimeter=0;" edge="1" parent="1" source="6e0c8c40b5770093-45" target="vje2uT5RQnnK4OeQTwtB-1">
          <mxGeometry width="50" height="50" relative="1" as="geometry">
            <mxPoint x="665" y="360" as="sourcePoint" />
            <mxPoint x="827" y="572" as="targetPoint" />
          </mxGeometry>
        </mxCell>
        <mxCell id="vje2uT5RQnnK4OeQTwtB-7" value="" style="endArrow=classic;html=1;rounded=0;entryX=0.988;entryY=0.514;entryDx=0;entryDy=0;entryPerimeter=0;" edge="1" parent="1" source="jnkB9Sy5KkFoXBMUI9Ge-7" target="vje2uT5RQnnK4OeQTwtB-1">
          <mxGeometry width="50" height="50" relative="1" as="geometry">
            <mxPoint x="840" y="390" as="sourcePoint" />
            <mxPoint x="1002" y="602" as="targetPoint" />
          </mxGeometry>
        </mxCell>
        <mxCell id="vje2uT5RQnnK4OeQTwtB-8" value="" style="endArrow=classic;html=1;rounded=0;entryX=0.5;entryY=0.232;entryDx=0;entryDy=0;entryPerimeter=0;exitX=0.617;exitY=0.978;exitDx=0;exitDy=0;exitPerimeter=0;" edge="1" parent="1" source="6e0c8c40b5770093-44" target="FF-GTUpiViAP1Fzdmv1N-1">
          <mxGeometry width="50" height="50" relative="1" as="geometry">
            <mxPoint x="800" y="346.75" as="sourcePoint" />
            <mxPoint x="962" y="558.75" as="targetPoint" />
          </mxGeometry>
        </mxCell>
        <mxCell id="vje2uT5RQnnK4OeQTwtB-9" value="" style="endArrow=classic;html=1;rounded=0;" edge="1" parent="1" source="mDy0LjV4EdPmGKK1C5-q-1" target="vje2uT5RQnnK4OeQTwtB-1">
          <mxGeometry width="50" height="50" relative="1" as="geometry">
            <mxPoint x="528" y="560" as="sourcePoint" />
            <mxPoint x="690" y="772" as="targetPoint" />
          </mxGeometry>
        </mxCell>
        <mxCell id="vje2uT5RQnnK4OeQTwtB-10" value="" style="endArrow=classic;html=1;rounded=0;entryX=0.022;entryY=0.29;entryDx=0;entryDy=0;entryPerimeter=0;exitX=0.685;exitY=1.034;exitDx=0;exitDy=0;exitPerimeter=0;" edge="1" parent="1" source="6e0c8c40b5770093-43" target="vje2uT5RQnnK4OeQTwtB-1">
          <mxGeometry width="50" height="50" relative="1" as="geometry">
            <mxPoint x="550" y="554" as="sourcePoint" />
            <mxPoint x="680" y="540" as="targetPoint" />
          </mxGeometry>
        </mxCell>
        <mxCell id="vje2uT5RQnnK4OeQTwtB-11" value="" style="endArrow=classic;html=1;rounded=0;entryX=0.75;entryY=1;entryDx=0;entryDy=0;entryPerimeter=0;exitX=0;exitY=0;exitDx=0;exitDy=70.0625;exitPerimeter=0;" edge="1" parent="1" source="FF-GTUpiViAP1Fzdmv1N-1" target="vje2uT5RQnnK4OeQTwtB-1">
          <mxGeometry width="50" height="50" relative="1" as="geometry">
            <mxPoint x="550" y="632" as="sourcePoint" />
            <mxPoint x="680" y="618" as="targetPoint" />
          </mxGeometry>
        </mxCell>
        <mxCell id="vje2uT5RQnnK4OeQTwtB-12" value="" style="endArrow=classic;html=1;rounded=0;exitX=0.152;exitY=1.005;exitDx=0;exitDy=0;exitPerimeter=0;entryX=0.072;entryY=0.018;entryDx=0;entryDy=0;entryPerimeter=0;" edge="1" parent="1" source="6e0c8c40b5770093-44" target="vje2uT5RQnnK4OeQTwtB-1">
          <mxGeometry width="50" height="50" relative="1" as="geometry">
            <mxPoint x="560" y="642" as="sourcePoint" />
            <mxPoint x="690" y="628" as="targetPoint" />
          </mxGeometry>
        </mxCell>
        <mxCell id="vje2uT5RQnnK4OeQTwtB-13" value="" style="endArrow=classic;html=1;rounded=0;entryX=0;entryY=0;entryDx=160;entryDy=17;entryPerimeter=0;exitX=0.5;exitY=1;exitDx=0;exitDy=0;exitPerimeter=0;" edge="1" parent="1" source="jnkB9Sy5KkFoXBMUI9Ge-4" target="vje2uT5RQnnK4OeQTwtB-1">
          <mxGeometry width="50" height="50" relative="1" as="geometry">
            <mxPoint x="948.7806543928266" y="402.75" as="sourcePoint" />
            <mxPoint x="793.52" y="620.95" as="targetPoint" />
          </mxGeometry>
        </mxCell>
        <mxCell id="vje2uT5RQnnK4OeQTwtB-14" value="" style="endArrow=classic;html=1;rounded=0;exitX=0.75;exitY=1;exitDx=0;exitDy=0;exitPerimeter=0;entryX=0;entryY=0;entryDx=0;entryDy=100;entryPerimeter=0;" edge="1" parent="1" source="tIno5rQIWUBfeGRRvXYs-1" target="vje2uT5RQnnK4OeQTwtB-1">
          <mxGeometry width="50" height="50" relative="1" as="geometry">
            <mxPoint x="580" y="662" as="sourcePoint" />
            <mxPoint x="710" y="648" as="targetPoint" />
          </mxGeometry>
        </mxCell>
        <mxCell id="vje2uT5RQnnK4OeQTwtB-15" value="Stored" style="text;html=1;align=center;verticalAlign=middle;whiteSpace=wrap;rounded=0;" vertex="1" parent="1">
          <mxGeometry x="570" y="621.13" width="60" height="30" as="geometry" />
        </mxCell>
        <mxCell id="vje2uT5RQnnK4OeQTwtB-16" value="Stored" style="text;html=1;align=center;verticalAlign=middle;whiteSpace=wrap;rounded=0;" vertex="1" parent="1">
          <mxGeometry x="580" y="580" width="60" height="30" as="geometry" />
        </mxCell>
        <mxCell id="vje2uT5RQnnK4OeQTwtB-17" value="Stored" style="text;html=1;align=center;verticalAlign=middle;whiteSpace=wrap;rounded=0;" vertex="1" parent="1">
          <mxGeometry x="730" y="530" width="60" height="30" as="geometry" />
        </mxCell>
        <mxCell id="vje2uT5RQnnK4OeQTwtB-18" value="Stored" style="text;html=1;align=center;verticalAlign=middle;whiteSpace=wrap;rounded=0;" vertex="1" parent="1">
          <mxGeometry x="810" y="660" width="60" height="30" as="geometry" />
        </mxCell>
        <mxCell id="vje2uT5RQnnK4OeQTwtB-19" value="Stored" style="text;html=1;align=center;verticalAlign=middle;whiteSpace=wrap;rounded=0;" vertex="1" parent="1">
          <mxGeometry x="850" y="540" width="60" height="30" as="geometry" />
        </mxCell>
        <mxCell id="vje2uT5RQnnK4OeQTwtB-20" value="Stored" style="text;html=1;align=center;verticalAlign=middle;whiteSpace=wrap;rounded=0;" vertex="1" parent="1">
          <mxGeometry x="890" y="419.13" width="60" height="30" as="geometry" />
        </mxCell>
        <mxCell id="vje2uT5RQnnK4OeQTwtB-23" value="Stored" style="text;html=1;align=center;verticalAlign=middle;whiteSpace=wrap;rounded=0;" vertex="1" parent="1">
          <mxGeometry x="752.5" y="510" width="60" height="30" as="geometry" />
        </mxCell>
      </root>
    </mxGraphModel>
  </diagram>
</mxfile>
